<svg xmlns="http://www.w3.org/2000/svg" width="66" height="51" fill="none" viewBox="0 0 66 51"><path fill="#F9F0FF" fill-rule="evenodd" d="M22.413 41.305a25.014 25.014 0 0 1-2.112-3.07c-.052-.052-.103-.103-.103-.154l-.206-.384c-.393-.73-.774-1.44-1.081-2.223l9.682-8.397c0-.077-.012-.167-.025-.256a1.906 1.906 0 0 1-.026-.256c0-.148-.012-.295-.024-.449-.014-.165-.028-.337-.028-.524 0-3.173 1.134-6.295 3.143-8.752l.052-.051c2.628-3.122 6.492-4.914 10.614-4.914 5.616 0 10.614 3.327 12.778 8.445 1.726-.69 3.44-1.381 5.152-2.072 1.714-.691 3.427-1.382 5.153-2.073.206-.103.31-.154.154-.41-.33-.78-.727-1.559-1.11-2.312l-.001-.003-.004-.006-.276-.545c-.051-.102-.103-.154-.154-.205C59.354 5.272 52.655 1.178 43.896.36c-2.525-.205-4.998 0-7.47.563C30.602 2.304 25.81 5.272 22.1 9.93c-.051.077-.103.14-.154.205l-.063.079c-.157-.261-.3-.523-.453-.798-.141-.257-.29-.525-.46-.817-1.889-3.366-2.912-5.061-4.696-8.013L15.92 0c-2.01 3.378-3.04 5.118-5.05 8.752l-.306.54c-1.813 3.185-2.836 4.981-4.691 8.571 1.649-.41 2.473-.614 4.122-.819-.412 1.024-.619 1.536-1.03 2.61-2.422 4.71-4.69 9.572-6.853 14.383 1.7-.614 2.524-.87 4.276-1.28C4.122 37.979 2.061 43.2 0 48.472c11.18-3.839 20.3-3.89 31.48-.103l.002.001c3.092 1.434 6.44 2.201 10.048 2.355 2.627.102 5.204-.256 7.728-.973 4.947-1.433 9.069-4.146 12.418-8.036.206-.256.412-.511.67-.767.67-.87 1.288-1.843 1.906-2.815.515-.87.979-1.792 1.34-2.713.02-.04.031-.07.042-.098.017-.044.029-.075.06-.107l.052-.102-.051-.103c-.069-.102-.138-.136-.222-.178-.042-.02-.088-.043-.139-.078a593.257 593.257 0 0 0-7.864-3.157l-.003-.001-2.232-.885c-.36.921-.876 1.843-1.443 2.662-2.576 3.736-6.852 5.937-11.386 5.937a13.99 13.99 0 0 1-11.181-5.63l-8.45 7.319-.36.307a22.074 22.074 0 0 0 2.627 2.764 27.187 27.187 0 0 0 6.414 4.287c-2.309-1.074-4.413-2.503-6.415-4.288a16.744 16.744 0 0 1-2.628-2.764Zm19.938-28.098c-3.71 0-7.162 1.638-9.532 4.453l-.052.051c-1.803 2.201-2.833 4.965-2.833 7.831v.359l7.522-6.5 5.125 4.428-10.272 8.929s0 .051.051.051c2.319 3.174 6.08 5.067 10.047 5.067 4.07 0 7.884-1.996 10.202-5.323l.052-.051-.155-.102-9.865-8.575 5.12-4.425 7.059 6.091c0-1.638-.31-3.173-.979-4.658-1.958-4.657-6.44-7.626-11.49-7.626Z" clip-rule="evenodd"/><path fill="#F9F0FF" d="M57.396 48.113h-.567c-.052 0-.052-.052-.052-.052v-.307c0-.05.052-.05.052-.05h1.546c.051 0 .051.05.051.05v.307c0 .052-.051.052-.051.052h-.567v1.996c0 .05-.052.05-.052.05h-.309c-.051 0-.051-.05-.051-.05v-1.996ZM59.404 47.703c0-.05 0-.05.051-.05h.052c.051 0 .051 0 .051.05l.773 1.69.773-1.69.052-.05h.051c.051 0 .051 0 .051.05l.413 2.406c0 .051 0 .102-.052.102h-.309c-.052 0-.052-.05-.052-.05l-.206-1.331-.618 1.382-.051.05h-.052c-.051 0-.051 0-.051-.05l-.619-1.382-.206 1.33-.051.052h-.31c-.051 0-.051-.052-.051-.103l.36-2.406Z"/></svg>