<svg xmlns="http://www.w3.org/2000/svg" width="68" height="34" fill="none" viewBox="0 0 68 34"><g fill="#F9F0FF" clip-path="url(#a)"><path d="M49.458 6.768V.465h3.136v.563c0 3.755.015 7.509-.007 11.263-.008 1.505.55 2.744 1.873 3.686.083.043.171.08.262.108-.92.507-1.718.96-2.534 1.378-.104.052-.368-.028-.465-.123-.448-.44-.865-.905-1.308-1.378a4.892 4.892 0 0 1-2.978 1.51c-2.721.356-5.016-.776-6.027-3.076-1.077-2.447-.873-4.808.947-6.957 1.407-1.66 4.59-2.48 6.81-.848.06.047.132.081.291.177Zm0 4.848c.014-.89-.231-1.711-.815-2.438-.89-1.106-2.572-1.213-3.63-.235-1.384 1.28-1.378 4.096.012 5.38.945.874 2.41.886 3.358.008.812-.752 1.06-1.697 1.07-2.718l.005.003ZM58.2 19.104v1.888c0 1.101.014 2.204-.01 3.306-.007.336.132.447.54.44 1.485-.013 2.97-.013 4.455 0 .446 0 .557-.147.557-.483-.017-1.534-.008-3.068-.008-4.602v-.517h3.405V33.02h-3.392v-5.755h-5.52v5.792h-1.98c-1.511 0-1.512 0-1.512-1.2 0-4.066.01-8.131-.012-12.197 0-.454.147-.594.716-.568.887.04 1.779.01 2.76.01ZM11.259 33.056c-.976 0-1.896.012-2.816-.02-.086 0-.232-.278-.234-.428-.017-1.595-.011-3.19-.011-4.784v-.559c-.209-.012-.366-.028-.523-.028-1.268 0-2.535.009-3.803-.01-.38-.006-.501.096-.496.453.021 1.55.01 3.1.01 4.65v.698H.402v-13.89h2.985v.537c0 1.535.011 3.07-.009 4.605 0 .358.12.464.5.458 1.283-.017 2.567-.015 3.852 0 .35 0 .478-.083.474-.428-.019-1.564.008-3.13-.015-4.694-.007-.421.145-.544.585-.524.65.03 1.3.03 1.95 0 .437-.02.544.12.542.509-.014 4.009-.008 8.018-.008 12.027v1.428ZM36.097 32.4l-3.177.658c-.317-.829-.633-1.608-.912-2.398-.113-.324-.279-.463-.713-.456-1.532.025-3.066.016-4.6.005-.302 0-.45.068-.544.33-.298.829-.637 1.648-.974 2.508-1-.197-1.97-.379-2.927-.599-.081-.019-.157-.319-.103-.45.332-.822.704-1.633 1.058-2.448 1.283-2.953 2.567-5.907 3.852-8.86.188-.436.362-.877.593-1.296a.62.62 0 0 1 .2-.18.75.75 0 0 1 .274-.092c.53-.037 1.07.019 1.6-.026.497-.042.689.146.843.507.784 1.843 1.593 3.678 2.393 5.516l3.075 7.065c.018.052.029.107.062.216Zm-8.92-4.608h3.722c-.62-1.61-1.217-3.174-1.816-4.74l-.112.022-1.794 4.718Z"/><path d="M22.128 30.58v2.478h-9.312V19.132c.205-.01.396-.029.588-.029 2.595 0 5.19.012 7.785-.013.57-.006.718.146.688.588-.043.622-.011 1.247-.011 1.91-.246.008-.436.022-.633.022-1.506 0-3.013.009-4.52 0-.39 0-.55.09-.544.433.026.686.024 1.373 0 2.06-.012.325.154.407.513.404 1.27-.01 2.542.005 3.813-.006.367 0 .528.08.515.404a20.612 20.612 0 0 0 0 1.703c.015.33-.155.398-.518.394-1.234-.014-2.469.005-3.704-.012-.456-.006-.643.097-.626.505.037.88.032 1.762 0 2.642-.012.358.144.458.561.454 1.56-.014 3.122-.005 4.685-.005l.72-.007ZM25.235 11.684c-.048 1.674-.709 3.448-2.304 4.728-2.295 1.845-5.471 1.365-7.272-1.03-1.771-2.355-1.708-5.998.14-8.295 2.348-2.913 6.617-2.532 8.519.766.615 1.067.913 2.225.917 3.831Zm-7.94-.655c-.016 1.083.155 1.877.578 2.602.932 1.595 2.855 1.618 3.823.05.89-1.446.809-3.633-.19-4.985a2.12 2.12 0 0 0-.686-.619 2.068 2.068 0 0 0-2.54.403c-.732.775-.96 1.749-.984 2.549ZM57.393 8.16 56.19 6.193a7.285 7.285 0 0 1 3.173-1.027c1.277-.125 2.53-.018 3.642.628 1.353.786 1.928 1.996 2.012 3.406.052.875.015 1.75.013 2.627 0 1.952.455 2.883 2.108 4.22-.712.406-1.43.768-2.088 1.206-.48.318-.786.271-1.115-.16-.26-.34-.584-.64-.899-.98-.923.807-2.002 1.3-3.264 1.402-2.116.17-4.24-.663-4.861-2.653-.694-2.217.562-4.198 3.087-4.775.834-.19 1.714-.223 2.575-.3.4-.037.807-.007 1.206-.007.153-1.384-.77-2.275-2.194-2.1-.707.088-1.398.3-2.193.478Zm4.373 3.673c-.972.01-1.952-.14-2.853.33a1.633 1.633 0 0 0-.852 1.876c.178.709.746 1.177 1.504 1.24.838.07 2.023-.515 2.408-1.19a.398.398 0 0 0 .048-.227c-.072-.655-.162-1.31-.255-2.029ZM7.905 11.037H3.477v6.503H.402V2.02h7.76v2.732H3.49V8.23h4.416v2.807ZM43.862 19.09h10.861v2.456h-3.862v11.51c-.997 0-1.928.009-2.859-.012-.093 0-.248-.18-.26-.284a8.396 8.396 0 0 1-.015-.94c0-3.228-.009-6.457.011-9.68 0-.442-.112-.605-.635-.588-1.068.036-2.138.011-3.244.011l.003-2.473ZM45.401 33.058h-7.749V19.09h2.805v10.874c0 .59 0 .591.597.592 1.292 0 2.583.01 3.875-.006.35 0 .498.08.482.449-.027.669-.01 1.34-.01 2.059ZM9.715.465h3.104v17.072H9.715V.465ZM25.234 6.602c.852-.474 1.69-.953 2.548-1.398.104-.054.373.006.464.1.506.5.981 1.029 1.504 1.588 1.157-.888 2.391-1.786 4.155-1.77l.642 3.03c-1.427.087-2.544.655-3.412 1.598a1.44 1.44 0 0 0-.367.885c-.031 2.13-.027 4.26-.008 6.392 0 .388-.11.528-.555.508a24.646 24.646 0 0 0-2.274 0c-.468.023-.555-.146-.555-.52.015-1.964-.037-3.928.022-5.892.052-1.755-.47-3.246-2.055-4.357-.043-.038-.06-.09-.109-.164ZM36.107 17.537v-.57c0-3.749.006-7.5-.01-11.249 0-.437.105-.617.577-.595.829.034 1.66.01 2.528.01v12.404h-3.095ZM37.654 3.569a1.524 1.524 0 0 1-1.556-1.555 1.539 1.539 0 0 1 1.518-1.55 1.574 1.574 0 0 1 1.586 1.54 1.556 1.556 0 0 1-1.548 1.565Z"/></g><defs><clipPath id="a"><path fill="#fff" d="M0 0h68v34H0z"/></clipPath></defs></svg>