<svg xmlns="http://www.w3.org/2000/svg" width="120" height="32" fill="none" viewBox="0 0 120 32"><g fill="#F9F0FF" clip-path="url(#a)"><path d="M.605 5.212c1.243-1.033 2.531-2.024 3.71-3.116.85-.787 1.732-1.154 2.983-1.094 2.11.104 4.23.039 6.345.02.49-.003.87.108 1.232.423a230.558 230.558 0 0 0 4.169 3.538c.304.253.398.522.398.88-.01 4.157-.012 8.313.001 12.468.002.393-.12.676-.443.946a237.075 237.075 0 0 0-4.098 3.485c-.333.291-.673.45-1.141.417-.388-.029-.782-.005-1.239-.005 0 .89-.014 1.69.011 2.491.006.173.126.375.258.506.29.286.606.558.948.79.18.123.438.205.663.206 1.686.017 3.372.022 5.058-.003.276-.003.57-.146.819-.281.23-.128.396-.349.613-.503.394-.28.52-.616.517-1.081-.022-4.435-.013-8.87-.013-13.305v-.944h4.946c.02.167.067.375.067.584.001 5.049-.006 10.098.005 15.146.002.451-.118.784-.499 1.097a224.651 224.651 0 0 0-4.165 3.542c-.315.273-.64.377-1.068.375a790.878 790.878 0 0 0-7.451-.002c-.425.002-.757-.1-1.07-.371a224.138 224.138 0 0 0-4.174-3.534c-.403-.331-.547-.684-.534-1.168.031-1.14.011-2.28.011-3.525-.455-.009-.843-.04-1.228-.017-.464.028-.81-.117-1.145-.41-1.283-1.12-2.588-2.22-3.893-3.318-.17-.142-.394-.232-.593-.346V5.213Zm6.846 13.335c.004-1.213.011-2.46.013-3.706.002-1.248 0-2.495 0-3.771h5.032c.065 2.535-.029 5.029.054 7.554.78-.066 1.043-.61 1.496-.91.299-.197.39-.462.389-.798-.011-3.21-.01-6.419-.002-9.629 0-.3-.076-.54-.337-.737a7.24 7.24 0 0 1-.672-.572c-.316-.305-.683-.42-1.148-.412-1.534.021-3.069.041-4.602-.005-.852-.027-1.195.586-1.747.947-.423.278-.383.664-.383 1.054.002 2.902.039 5.805-.022 8.707-.017.84.223 1.454.965 1.921.265.168.43.506.964.357ZM115.051 24.5l-3.115-.151c.422-.175.646-.267.873-.359.022-.1.072-.19.05-.26-.186-.587-.389-1.17-.58-1.756-.083-.25-.273-.365-.543-.367-.698-.005-1.396-.001-2.143-.001l-.821 2.319.812.336c-.053.07-.088.151-.123.151-.755.007-1.512.005-2.259.005 0-.102-.007-.19.002-.192.685-.116.996-.54 1.22-1.104.72-1.803 1.467-3.598 2.233-5.387.122-.285.399-.514.698-.882.163.353.279.564.362.787a834.408 834.408 0 0 1 2.053 5.536c.211.58.545.996 1.286.991-.005.112-.005.224-.005.335Zm-3.135-3.419a21.634 21.634 0 0 0-.966-2.66c-.624 1.132-.957 2.068-.967 2.66h1.933ZM108.085 6.846c-1.296-.11-2.472-.263-3.162 1.15-.219-.779.285-1.256.208-1.96.685.497 1.349.386 1.993.39 1.35.006 2.701.014 4.05-.006.32-.005.639-.114.957-.18.055-.012.131-.088.153-.074.92.544 1.967.073 3.039.331l-.729.47 1.697 3.164c.795-1.053 1.32-2.127 1.968-3.217l-.727-.303c.042-.075.066-.152.09-.154.727-.007 1.454-.005 2.183-.005-.004.079.005.168-.011.173-.747.179-1.151.686-1.495 1.26-.28.466-.554.935-.874 1.375-.631.866-.926 1.787-.849 2.842.085 1.14.037 1.147 1.269 1.435-.566.397-1.144.069-1.679.124-.523.055-1.057.012-1.631.012.074-.12.09-.19.127-.201.928-.273.9-.278.965-1.159.069-.976-.113-1.87-.68-2.72-.429-.64-.78-1.327-1.126-2.009-.284-.558-.689-.914-1.432-.894l-.157 1.189c-.123-.044-.215-.055-.221-.08-.149-.801-.775-.997-1.54-1.014-.424-.008-.849-.001-1.346-.001-.027.314-.068.554-.068.793-.006 1.48-.028 2.96.006 4.438.027 1.25-.133 1.093 1.185 1.58-.157.061-.258.133-.359.133-.992-.012-1.986-.035-3.008-.057.054-.11.065-.182.094-.19 1.092-.24 1.103-.24 1.108-1.284.008-1.756.002-3.511.002-5.351ZM97.105 17.164h1.748l3.027 5.83a90.205 90.205 0 0 0 3.136-5.825h1.876c-.046.094-.059.173-.096.184-.979.305-.988.303-.977 1.204.018 1.479.051 2.956.072 4.434.009.634.128 1.183 1.084 1.211-.437.204-2.209.263-2.982.14.011-.048.007-.128.033-.136.882-.282.883-.28.883-1.099.002-1.393 0-2.786 0-4.163-.06-.027-.082-.042-.104-.043a.19.19 0 0 0-.087.015c-.026.011-.057.03-.068.053l-3.028 5.531c-.469-.604-.676-1.264-1.009-1.862-.359-.646-.684-1.306-1.018-1.964-.316-.626-.624-1.256-1.056-1.869-.015.201-.037.402-.046.605-.048 1.113-.096 2.229-.138 3.342-.01.223-.004.446.007.668.022.407.192.698.7.725.103.005.202.062.287.218h-2.583c-.007-.044-.016-.087-.024-.13.098-.038.194-.09.295-.108.51-.09.688-.392.718-.835.097-1.502.224-3.003.316-4.507.068-1.068.05-1.07-.966-1.619ZM39.644 13.338c.593-1.199 1.165-2.314 1.1-3.632-.5-.059-.758.2-1.026.405-.882.673-1.53 1.517-2.086 2.423-.21.34-.401.69-.615 1.028-.147.233-.346.303-.659.047l2.34-6.485c-.337-.412-.76-.347-1.149-.344-1.767.015-1.377-.2-1.94 1.275-.534 1.395-1.021 2.803-1.513 4.21-.107.306-.142.633-.215.973l1.047.324c-.627.305-1.169.049-1.684.097a4.25 4.25 0 0 1-1.504-.125c.096-.037.192-.099.29-.106.542-.037.807-.348.97-.773.148-.396.303-.789.448-1.186.483-1.321.963-2.644 1.44-3.969.064-.18.108-.366.187-.638-1.336-.187-2.532-.222-3.434.893.025-.628.46-1.047.7-1.482.443.054.826.137 1.21.14 1.502.016 3.006 0 4.508.01.466.004.902.01 1.248-.363.11-.119.372-.122.757-.236-.705 1.856-1.357 3.569-2.078 5.47.406-.421.644-.74.955-.972.517-.383 1.04-.799 1.64-1.042.694-.28 1.174.062 1.104.744-.14 1.345-.705 2.534-1.822 3.458-.19.156-.477.243-.734.293-.229.043-.438-.079-.409-.33.028-.233.19-.338.456-.251.111.04.225.072.468.144ZM86.287 17.34c-.107.038-.21.098-.32.11-.418.043-.573.274-.578.628-.006.361-.018.725-.018 1.086-.002 1.255.029 2.509-.01 3.763-.022.68.096 1.209 1.059 1.311-.492.181-2.445.203-2.98.076.896-.535.898-.535.9-1.633 0-.5-.01-1.003-.02-1.504-.002-.052-.04-.104-.104-.268-1.426-.105-2.9-.069-4.467-.015 0 .936-.011 1.79.005 2.644.006.273.19.462.49.54.173.043.346.088.506.13.008.055.019.08.013.104-.005.025-.024.069-.037.069-.933.003-1.864.003-2.792.003 0-.069-.013-.156.002-.16.672-.189.834-.63.823-1.222-.026-1.338-.002-2.676-.006-4.014-.004-1.225-.007-1.225-1.003-1.736.606-.15 2.201-.16 2.91-.017-.935.558-.935.558-.939 1.774v1.336c1.523.202 2.997.072 4.545.095.125-.914.098-1.74.015-2.56-.015-.142-.247-.285-.407-.392-.127-.084-.3-.112-.423-.296h2.83c0 .046.004.098.006.149ZM50.272 24.558c-2.474-.001-4.239-1.549-4.24-3.715 0-2.192 1.825-3.86 4.233-3.87 2.513-.01 4.24 1.552 4.215 3.816-.02 2.138-1.844 3.846-4.208 3.77Zm-3.085-4.096c.083 1.297.477 2.316 1.24 3.008 1.387 1.254 3.69.921 4.437-.707.69-1.503.56-3.026-.468-4.377-1.235-1.628-3.942-1.35-4.79.47-.231.5-.284 1.069-.419 1.606ZM91.672 24.558c-2.476-.006-4.232-1.554-4.227-3.727.006-2.19 1.84-3.857 4.247-3.858 2.509-.004 4.239 1.569 4.204 3.83-.035 2.165-1.883 3.836-4.224 3.755Zm-3.056-4.092c.064 1.284.462 2.314 1.224 3.002 1.417 1.281 3.753.908 4.48-.777.626-1.452.48-2.907-.45-4.238-.593-.847-1.516-1.21-2.605-1.107-1.132.109-1.937.683-2.318 1.661-.182.462-.224.971-.331 1.459ZM57.603 20.837c-.06.975-.074 1.911.025 2.847.015.13.188.276.328.357.168.097.377.134.613.212-.438.171-2.41.186-2.991.024.15-.067.243-.127.342-.149.48-.099.619-.394.613-.805-.009-.669.004-1.338.004-2.008 0-1.003.007-2.008-.011-3.011-.011-.665-.028-.663-.794-.89-.075-.021-.132-.091-.318-.225h3.065c-.02.062-.03.152-.055.155-.71.114-.91.52-.864 1.134.046.633.01 1.27.01 1.93.706-.2 2.29-1.547 3.352-2.807-.1-.052-.197-.094-.282-.15-.087-.055-.162-.123-.344-.267h2.617c-1.745.61-2.8 1.925-4.114 3.034.206.256.352.464.528.648.744.779 1.497 1.549 2.248 2.323.471.483.944.964 1.749 1.033-.468.325-.97.115-1.44.157a4.6 4.6 0 0 1-1.45-.109l.47-.273c-.551-.926-2.554-2.875-3.301-3.16ZM87.531 6.593c.138-.059.241-.139.344-.139 1.132-.013 2.268-.043 3.398-.007.623.02 1.199.248 1.615.702.657.715.545 1.829-.258 2.49-.247.204-.537.363-.804.54.747 1.535 1.927 2.824 3.267 3.55-1.022.204-1.865-.002-2.485-.71a20.584 20.584 0 0 1-1.46-1.921c-.37-.541-.82-.8-1.572-.58-.158.757-.064 1.532-.051 2.301.003.283.188.457.486.54.162.043.318.103.456.29h-2.921c.004-.046.002-.135.015-.137.786-.134.983-.61.972-1.27-.023-1.394.003-2.789-.008-4.182-.003-.99-.03-1.008-.994-1.467Zm2.014 3.446c.968.07 1.84.184 2.393-.633.42-.621.344-1.495-.136-2.04-.512-.579-1.289-.74-2.257-.448v3.121ZM61.672 13.664H59.01c.016-.07.02-.158.04-.161.727-.106.884-.536.88-1.139-.006-1.365.057-2.731.068-4.098.01-1.175-.037-1.22-1.294-1.721.694-.243 1.314-.064 1.832-.114l5.338 5.61c.044-.348.082-.52.082-.688-.001-1.06-.009-2.12-.022-3.179a5.395 5.395 0 0 0-.053-.666c-.055-.417-.2-.76-.767-.772-.126-.003-.249-.102-.335-.27h2.692c-.014.069-.018.16-.038.163-.8.139-.952.641-.946 1.29.018 1.672.001 3.345 0 5.02v.924c-.755-.39-1.085-1.007-1.582-1.469-.513-.477-.975-1.001-1.46-1.504-.463-.482-.93-.962-1.39-1.45-.472-.499-.934-1.004-1.409-1.519-.094.11-.158.15-.158.188.022 1.475.06 2.952.073 4.428.006.576.276.887.919.915.053.002.108.044.158.076.015.007.011.04.035.136ZM55.616 6.448h2.626c-.005.067-.002.154-.014.156-.803.116-.967.594-.965 1.254.002 1.169.024 2.348-.13 3.503-.297 2.21-2.913 3.266-5.007 2.08-.611-.347-.969-.866-1.072-1.492-.105-.63-.132-1.272-.154-1.91-.026-.752-.002-1.506-.013-2.258-.013-.869-.02-.869-.895-1.187.425-.213 1.9-.258 2.84-.087-.023.047-.033.124-.071.135-.803.277-.816.275-.825 1.057-.011 1.003-.005 2.006.002 3.01.002.249.003.505.053.75.348 1.686 1.464 2.046 2.999 1.813.648-.099 1.106-.492 1.353-1.033.173-.382.33-.797.346-1.204.046-1.057.03-2.117.002-3.175-.017-.638-.153-1.238-1.153-1.226.028-.062.054-.124.078-.186ZM80.644 6.45h5.305l.175 1.416-.18.057c-.069-.074-.172-.137-.197-.221-.205-.683-.755-.903-1.458-.915-.545-.008-1.09-.001-1.703-.001-.118.99-.046 1.895-.053 2.808.642.243 1.248.144 1.848.08.302-.031.493-.192.537-.487.019-.122.102-.238.179-.407.236.534.269 1.295.121 2.197-.055-.008-.154-.01-.16-.028-.178-.764-.756-.918-1.506-.848-.296.029-.6.005-.99.005-.064.901-.08 1.727.013 2.55.044.38.35.592.76.607.643.023 1.294.065 1.924-.015.318-.04.624-.305.885-.52.212-.172.346-.423.628-.783.11.759-.241 1.21-.403 1.713h-5.986c.044-.102.053-.177.083-.184 1.021-.255 1.067-.285 1.08-1.238.019-1.421.006-2.843.01-4.263.001-.633.001-1.258-1.01-1.346.034-.059.067-.12.098-.178ZM69.402 24.168c.724.022 1.086-.336 1.326-.93.723-1.804 1.502-3.588 2.229-5.39.156-.39.353-.683.861-.828.184.473.372.939.545 1.408.567 1.529 1.136 3.056 1.692 4.588.22.611.482 1.167 1.51 1.149-.61.457-1.122.169-1.586.216-.473.048-.957.01-1.48-.094.102-.05.2-.105.306-.147.136-.054.278-.097.526-.183-.274-.777-.54-1.527-.832-2.346-.75 0-1.45-.013-2.148.01-.158.005-.41.106-.453.215-.267.698-.659 1.371-.671 2.166l.693.236c-.023.058-.042.145-.064.145-.727.021-1.454.045-2.18.036-.088-.001-.172-.177-.26-.273.003 0-.014.022-.014.022Zm4.775-3.066c-.112-.906-.6-2.178-.994-2.607l-1.01 2.607h2.004ZM76.307 12.014c.77-1.685 1.538-3.37 2.328-5.094l-.878-.32c.567-.211 1.548-.241 2.516-.097-.057.072-.103.186-.154.187-.584.026-.856.382-1.064.806-.79 1.6-1.581 3.197-2.362 4.8-.243.5-.454 1.012-.738 1.65-.166-.23-.261-.326-.311-.44a1053.45 1053.45 0 0 1-2.397-5.511c-.266-.621-.513-1.25-1.481-1.388.686-.216 1.925-.248 3.002-.097l-.906.435 2.246 5.112c.066-.011.132-.028.199-.043ZM95.422 11.858c.132.234.254.475.401.703.427.66 1.051.988 1.91.913.882-.076 1.44-.722 1.284-1.51-.098-.49-.383-.877-.834-1.156-.405-.252-.836-.47-1.217-.747-.355-.258-.721-.533-.977-.868-.772-1.01-.31-2.299.944-2.756.736-.27 1.384-.246 2.64.1.198.407.322.841.127 1.457-.18-.286-.304-.458-.404-.64-.255-.475-.7-.696-1.25-.734-.581-.042-1.11.088-1.402.602-.282.496-.208.995.193 1.399.282.284.652.497.992.73.464.318.982.58 1.394.944.718.637.95 1.432.563 2.296-.359.802-1.082 1.192-2.016 1.226a8.361 8.361 0 0 1-1.461-.079c-.56-.077-.957-.345-.996-.922-.02-.299-.077-.593-.118-.89.074-.023.151-.047.227-.068ZM34.545 26.26c1.252.726 1.537.633 1.912-.643.488-1.663.95-3.333 1.436-5.044-.346-.054-.663-.1-1.051-.16.294-.508.845-.163 1.22-.46.107-.262.207-.617.39-.93.343-.585.684-1.183 1.12-1.707.421-.507 1.047-.755 1.774-.723.396.018.74.132.854.509.114.373-.08.63-.495.823-.103-.23-.17-.438-.282-.624-.217-.362-.543-.432-.913-.2a1.58 1.58 0 0 0-.39.349c-.596.757-.896 1.62-1.141 2.582l1.57.152c-.526.55-1.148.156-1.706.424-.043.097-.133.266-.188.444-.429 1.363-.832 2.734-1.283 4.09a5.16 5.16 0 0 1-.635 1.287c-.396.574-1.007.916-1.765.877-.258-.013-.573-.207-.733-.405-.182-.23-.014-.474.306-.641ZM69.414 24.142c-.206.089-.412.25-.62.253-1.655.028-3.31.03-4.965.034-.082 0-.165-.054-.298-.101.066-.072.102-.152.159-.17.898-.26.914-.259.922-1.074.013-1.479.013-2.957.005-4.436-.005-1.017-.014-1.017-1.036-1.335.423-.226 2.174-.266 2.998-.07-.003.027-.001.079-.009.079-.88.107-.99.67-.984 1.33.012 1.312.001 2.623.003 3.934 0 .168.011.335.035.501.103.697.293.863 1.047.916.183.014.37-.003.553.015.979.097 1.761-.125 2.133-1.051.024-.06.129-.094.256-.18.19.53-.252.925-.22 1.372l.021-.017ZM101.169 6.46h2.96c-.014.083-.014.133-.025.135-.875.136-1.029.653-1.002 1.376.052 1.419.011 2.839.019 4.259.005.968.012.968 1.076 1.31-.528.366-1.075.088-1.577.112-.484.023-1 .177-1.682-.063.314-.11.439-.167.57-.197.383-.087.562-.305.562-.66-.002-1.782 0-3.562 0-5.343 0-.39-.175-.633-.637-.667-.102-.007-.199-.08-.297-.124.009-.045.022-.09.033-.137ZM71.546 13.512c-.508.176-2.494.224-3.138.12.011-.046.01-.125.037-.135.937-.335.952-.335.959-1.263.011-1.45.013-2.9-.002-4.35-.01-.92-.024-.92-.996-1.311.508-.186 1.959-.228 2.993-.086-.013.049-.013.133-.042.143-.955.313-.966.311-.972 1.215-.011 1.422.02 2.845-.018 4.267-.023.732.075 1.33 1.18 1.4ZM31.642 22.933c.141-1.052.741-2.071 1.934-2.766.177-.103.388-.166.595-.21 1-.212 1.756.31 1.673 1.238-.11 1.219-.696 2.242-1.808 2.977-.123.08-.263.142-.403.198-1.172.46-2.023-.064-1.992-1.437Zm.76.638c.088.139.167.444.359.52.19.076.519-.033.734-.145.199-.104.387-.298.477-.49.35-.734.666-1.48.974-2.23.06-.147.046-.33.022-.493-.054-.37-.346-.54-.716-.407a1.15 1.15 0 0 0-.44.281c-.772.826-1.149 1.814-1.41 2.964ZM44.993 12.81c-.388.455-.869.811-1.511.952-.794.174-1.31-.164-1.425-.901-.01-.055-.01-.11-.013-.166-.05-1.242 1.359-3.047 2.673-3.42.145-.041.315-.108.445-.075.276.07.637.136.768.32.13.185.123.56 0 .759-.17.273-.475.512-.78.671-.446.233-.93.44-1.427.55-.565.127-.751.457-.734.899.009.251.112.55.289.735.239.251.572.092.839-.045.256-.13.491-.292.736-.44.046.051.094.107.14.162Zm.374-3.139c-.937-.044-1.55.48-1.931 1.59.89-.299 1.66-.654 1.93-1.59Z"/></g><defs><clipPath id="a"><path fill="#fff" d="M0 0h120v32H0z"/></clipPath></defs></svg>