<svg xmlns="http://www.w3.org/2000/svg" width="74" height="47" fill="none" viewBox="0 0 74 47"><path fill="#F9F0FF" d="M63.506 45.242c-.605.184-1.475.169-1.992-.03l-.75-4.68-1.826 2.883c-.296.116-.415-.045-.553-.255-.414-.672-.828-1.334-1.242-1.998-.118-.188-.238-.373-.397-.623-.19 1.183-.368 2.288-.544 3.393-.05.315-.098.631-.138.949-.033.252-.138.474-.382.479-.526.009-1.06.06-1.595-.04-.169-.572.044-1.079.121-1.582.307-2.031.656-4.055.992-6.083.078-.472.15-.948.25-1.417.081-.376.363-.447.607-.177.099.12.187.25.264.388l2.15 3.5c.079.127.167.247.297.435l.69-1.127 1.795-2.93c.047-.077.076-.18.139-.226.115-.085.276-.216.374-.18a.543.543 0 0 1 .19.147.596.596 0 0 1 .113.22c.155.807.277 1.621.408 2.433.33 2.005.66 4.011.993 6.017.02.167.032.335.036.504ZM41.09 41.777h-3.25v2.597c0 1 0 1-.921 1-.235 0-.47.014-.704 0-.351-.022-.447-.13-.477-.506-.008-.116 0-.232 0-.349v-7.83c0-.243.04-.484.068-.786.597 0 1.125-.01 1.655 0 .302 0 .383.228.382.522v3.373h3.21c.012-.162.037-.337.038-.514v-2.656c0-.222.035-.443.056-.694h1.922c.056.202.093.409.11.618.008 2.728.008 5.454 0 8.179 0 .548-.086.631-.6.642h-.828c-.636 0-.658-.026-.66-.697v-2.899ZM.525 40.603c-.133-2.47 2.192-4.713 4.71-4.705 2.193.01 4.773 1.719 4.763 4.75-.009 2.702-2.054 4.74-4.771 4.733-3.048-.01-4.855-2.592-4.702-4.778Zm2.014.055a2.662 2.662 0 0 0 2.707 2.692c1.527-.013 2.68-1.09 2.716-2.69a2.663 2.663 0 0 0-2.744-2.72 2.705 2.705 0 0 0-2.68 2.718ZM48.927 35.904c2.266-.126 4.426 2.025 4.417 4.728-.008 2.387-1.72 4.735-4.358 4.749-2.69.013-4.428-2.26-4.447-4.718-.023-2.863 2.251-4.882 4.388-4.76Zm2.52 4.722c.056-1.31-1.016-2.715-2.498-2.71a2.335 2.335 0 0 0-.962.196c-.306.133-.584.33-.819.58-.235.25-.422.548-.55.876a2.9 2.9 0 0 0-.198 1.038c-.009.362.05.722.17 1.06.122.338.305.646.538.906.233.26.512.467.82.61a2.35 2.35 0 0 0 1.95.008c.31-.139.59-.343.825-.601.235-.258.42-.565.545-.901.124-.337.185-.697.178-1.059v-.003ZM17.56 46.724l-4.665-6.038c-.029.25-.057.39-.057.528v3.175c0 .57-.098.671-.686.66-.48-.01-.97.098-1.476-.1v-8.996c.695-.09 1.35-.045 2.087-.029.177 1.26 0 2.491.114 3.861l2.906-3.865h2.31c.056 0 .113.06.248.137-.437.775-1.067 1.396-1.594 2.087-.527.69-1.1 1.382-1.675 2.1.866 1.076 1.728 2.13 2.565 3.201.82 1.046 1.73 2.03 2.521 3.241-.946.079-1.77.04-2.597.038ZM73.662 45.226c-.171.051-.345.09-.522.116-.29.015-.591-.04-.872.013-.664.124-.98-.216-1.189-.787a8.66 8.66 0 0 0-.4-.837H67.19c-.146.328-.34.683-.484 1.055-.16.412-.404.615-.872.568-.378-.038-.763 0-1.145-.012a3.177 3.177 0 0 1-.51-.12c.252-.564.468-1.076.709-1.574 1.162-2.397 2.325-4.792 3.488-7.184.035-.058.065-.118.091-.18a.485.485 0 0 1 .493-.385c.244 0 .322.2.413.387.474.997.953 1.993 1.435 2.989l2.616 5.421c.077.14.132.286.237.53Zm-3.683-3.271c-.414-.758-.639-1.493-1.078-2.22-.354.791-.661 1.48-.99 2.22h2.068ZM35.06 45.283c-.745.147-1.374.091-1.995.062-.146 0-.31-.236-.404-.4-.209-.373-.378-.768-.577-1.18H28.58c-.178.375-.388.768-.555 1.18a.612.612 0 0 1-.677.428c-.405-.024-.812 0-1.218-.012a3.463 3.463 0 0 1-.55-.116c.088-.237.138-.407.214-.561 1.341-2.763 2.684-5.526 4.027-8.29a2.33 2.33 0 0 1 .126-.24c.218-.34.51-.342.742 0 .072.114.136.234.191.358l3.943 8.102c.082.181.139.374.238.67ZM30.314 39.7l-.99 2.254h2.027L30.314 39.7ZM41.156 16.482c.063-.104.14-.198.229-.282 1.467-1.042 2.947-2.082 4.41-3.14a.784.784 0 0 1 .788-.128c1.726.562 3.452 1.094 5.178 1.641.082.04.16.087.232.14-1.648 1.267-3.346 2.383-4.983 3.584-.944-.29-1.888-.58-2.832-.873-1.01-.31-2.018-.625-3.022-.942ZM39.271 12.194a2.918 2.918 0 0 1-.293-.503c-.61-1.773-1.2-3.551-1.814-5.323a.793.793 0 0 1 .106-.84c1.143-1.49 2.263-2.994 3.395-4.493.084-.11.19-.206.33-.355.06.101.112.207.158.315l1.894 5.588c.038.11.091.213.139.32-.105.125-.215.245-.316.375a3214.227 3214.227 0 0 1-3.168 4.23c-.156.218-.284.456-.43.686ZM33.026 16.254c-.19.654-.367 1.314-.575 1.963-.441 1.388-.904 2.771-1.357 4.17a308.474 308.474 0 0 1-6.196 1.994c.353-1.097.654-2.041.96-2.985.267-.826.552-1.645.802-2.474.065-.286.107-.578.127-.872.269-.026.536-.07.799-.133 1.078-.339 2.146-.711 3.226-1.053.73-.22 1.475-.406 2.214-.61ZM30.996 6.575c.266-.877.53-1.754.8-2.63.298-.96.602-1.92.91-2.88.05-.13.106-.26.168-.385l3.54 4.998-1.822 5.74c-.012.038-.054.065-.082.099a2.42 2.42 0 0 1-.257-.27c-.632-.886-1.261-1.77-1.888-2.663-.464-.662-.913-1.337-1.369-2.009ZM30.69 6.781c.478.716.95 1.437 1.437 2.15.654.953 1.324 1.897 1.982 2.841.083.103.173.2.27.287-.089.048-.176.136-.263.137-2.047.008-4.095 0-6.165 0l-3.732-5.364h5.734c.246-.003.492-.034.737-.05Z"/><path fill="#F9F0FF" d="M33.024 16.572c-.702.195-1.41.373-2.107.59-1.026.32-2.041.678-3.066 1.007-.25.06-.504.103-.76.128a182.277 182.277 0 0 1-4.904-3.573c.68-.236 1.245-.443 1.817-.63 1.182-.383 2.375-.74 3.553-1.142a.9.9 0 0 1 .916.123c1.445 1.073 2.897 2.137 4.342 3.209.084.085.154.182.21.288ZM41.156 16.254c.965.339 1.93.677 2.897 1.014.904.314 1.809.622 2.715.934l1.838 6.18c-1.965-.602-3.767-1.321-5.668-1.956-.128-.442-.26-.919-.403-1.392-.394-1.303-.795-2.604-1.184-3.91-.086-.287-.133-.581-.195-.87ZM39.121 12.2c.138-.236.262-.48.414-.702a933.741 933.741 0 0 1 2.986-4.333c.092-.133.196-.256.297-.384h6.463L45.524 12.2h-6.403ZM37.09 19.637c.357.243.725.474 1.073.732 1.144.837 2.284 1.693 3.424 2.543.083.06.156.14.244.217v5.99L37.09 25.62v-5.984ZM37.09 19.637v5.99l-4.735 3.064c-.211.14-.425.266-.683.428v-6.012c.376-.249.807-.541 1.242-.828 1.267-.828 2.534-1.654 3.802-2.479.12-.064.244-.119.374-.163ZM21.625 35.9v7.529c1.315.1 2.593 0 3.843.059.198.263.081.47-.012.68-.614 1.39-.215 1.197-1.726 1.209-1.218.009-2.435 0-3.652 0-.527 0-.593-.064-.593-.594a1918.48 1918.48 0 0 1 0-8.241c0-.574.063-.63.625-.638.465-.009.941-.004 1.515-.004ZM25.578 5.419c.798-.833 1.763-1.437 2.81-2.032l1.931 2.032h-4.74ZM47.926 18.742l4.064-2.488a10.761 10.761 0 0 1-.777 3.386l-3.287-.898ZM24.316 23.029c-.685-1.009-1.056-2.036-1.449-3.134l2.71-.93-1.261 4.064ZM30.264 28.448c-.733-.361-1.333-.89-1.975-1.44.323-.573.634-1.129.949-1.68.315-.552.62-1.07.94-1.621.147.413.189 2.89.086 4.741ZM45.894 3.298 43.992 6.1c-.551-1.632-.993-3.19-1.484-4.74.698.046 2.617 1.136 3.386 1.938ZM22.2 13.549c-.076-.645.22-1.983.593-2.71l4.136 1.26-4.73 1.45ZM50.177 8.121c.478.946.942 1.755 1.133 2.745l-4.064 1.319c1.026-1.413 1.939-2.692 2.931-4.064ZM47.929 25.172a10.786 10.786 0 0 1-2.239 1.921l-2.502-3.27.072-.116 4.669 1.465ZM37.09 30.457V27.09c1.188.925 2.266 1.878 3.386 2.845-.891.4-2.287.608-3.386.522ZM33.703.329A11.888 11.888 0 0 1 37.09.016V4.74L33.703.33Z"/></svg>