<svg xmlns="http://www.w3.org/2000/svg" width="126" height="25" fill="none" viewBox="0 0 126 25"><path fill="#F9F0FF" d="M125.283 24.006H.66c.007-.125.02-.25.02-.375V.464C.68.372.675.28.682.187.686.124.702.06.712 0H125.28v23.654c0 .118.002.236.004.352ZM3.314 2.3c-.07.323-.054 19.197.011 19.377.387.049 119.166.031 119.363-.02.006-.016.019-.03.021-.045.007-.05.013-.1.013-.15 0-6.338 0-12.676-.002-19.014 0-.034-.011-.067-.017-.099-.002-.007-.009-.013-.015-.021l-.029-.03C82.891 2.3 43.109 2.3 3.314 2.3Z"/><path fill="#F9F0FF" d="M69.33 6.5h3.924l4.957 10.777c-.205.063-3.921.079-4.278.022-.201-.459-.405-.923-.61-1.395h-4.144c-.201.47-.398.938-.606 1.424h-.307c-2.319 0-4.635-.002-6.954.004a.573.573 0 0 1-.485-.216c-1.308-1.49-2.623-2.971-3.936-4.457-.063-.07-.13-.14-.19-.205-.022.006-.03.006-.04.01-.006.004-.017.008-.019.014a.192.192 0 0 0-.009.05l-.01 4.734c0 .007-.007.013-.011.021-.19.055-3.446.075-3.86.024-.058-.177-.07-10.441-.006-10.732h.292c1.026 0 2.05.004 3.076-.004.212-.002.353.053.489.206 1.25 1.425 2.51 2.842 3.766 4.26.063.071.125.14.186.205.028-.014.039-.016.045-.021a.052.052 0 0 0 .013-.02.193.193 0 0 0 .007-.05l.008-4.507c0-.008.005-.016.007-.024.188-.057 3.569-.07 3.913-.01v10.148l.065.012c1.568-3.422 3.14-6.844 4.717-10.27Zm.857 6.812c.536.053 1.936.034 2.126-.033l-1.025-2.472-.065.002c-.34.827-.682 1.653-1.036 2.503ZM116.703 17.328h-.519c-.887 0-1.772-.006-2.659.004a.54.54 0 0 1-.465-.2c-1.313-1.496-2.634-2.986-3.954-4.475-.062-.07-.127-.136-.22-.236-.059.3-.026.564-.03.826-.007.268-.003.537-.003.805v3.256h-3.904V6.592c.065-.008.126-.02.188-.02 1.099-.002 2.198.004 3.297-.006.175-.002.266.071.361.181a3726.78 3726.78 0 0 0 3.697 4.178c.09.102.183.205.328.301.005-.087.013-.171.013-.258V6.582h3.874c.063.209.063 10.531-.004 10.746ZM104.541 11.985c-.084 2.118-1.129 3.792-3.238 4.823-2.171 1.06-4.416 1.053-6.57-.041-2.062-1.047-3.113-2.708-3.096-4.864.017-2.021 1.004-3.611 2.894-4.648 2.308-1.267 4.718-1.281 7.047-.05 1.955 1.038 2.894 2.67 2.963 4.78Zm-8.924-.076c-.005.608.17 1.145.566 1.615.963 1.145 2.88 1.135 3.823-.016.75-.919.711-2.327-.091-3.207-1.01-1.108-2.927-1.03-3.818.157-.335.441-.484.937-.48 1.45ZM41.748 9.506v1.118h5.707c.069.198.086 2.205.025 2.556-.105.008-.22.021-.337.021-1.672.002-3.342.002-5.014.002h-.391c-.02.406-.013.785-.002 1.195h6.266v2.9H37.905c-.009-.086-.022-.173-.024-.262-.002-.37-.002-.738-.002-1.107V6.606h9.997c.059.179.078 2.451.024 2.884-.673.034-1.352.01-2.031.014-.684.004-1.367.002-2.05.002h-2.07ZM32.913 17.395h-3.768c-1.586-3.578-3.173-7.167-4.774-10.782h4.389c.752 1.98 1.51 3.965 2.267 5.953.02.002.04.004.06.004.277-.65.509-1.317.762-1.974.257-.665.503-1.332.757-1.997.253-.665.508-1.328.763-1.994h4.32c-1.599 3.611-3.189 7.2-4.776 10.79ZM82.833 17.312h-3.959V9.615c-1.163-.009-2.301.001-3.456-.005V6.59h10.875v3.016H82.83v3.873c.003 1.273.003 2.546.003 3.833ZM9.496 6.605h3.896l.002 2.539v5.112c.134.01.249.024.364.024 1.598.002 3.194.002 4.793.002h.374v2.989c-.193.059-8.767.086-9.398.03-.063-.184-.095-10.013-.03-10.696ZM90.838 17.316h-3.924V6.59h3.924v10.726Z"/><path fill="#F9F0FF" d="M21.242 18.31h-1.94c.004-.179.093-.27.238-.332.309-.132.614-.27.921-.405.082-.036.165-.075.262-.12-.017-.07-.028-.132-.05-.193-.223-.63-.46-1.258-.664-1.893-.09-.28-.13-.575-.167-.864-.118-.925-.229-1.85-.341-2.775-.003-.025-.011-.049-.02-.092-.242-.037-.246-.207-.25-.394-.022-.915-.057-1.828-.076-2.743-.005-.19-.055-.342-.24-.446-.087-.048-.154-.12-.238-.173-.165-.1-.273-.22-.232-.418.024-.116-.07-.185-.151-.252-.424-.35-.848-.698-1.274-1.046-.212-.174-.42-.355-.643-.516-.26-.187-.337-.45-.406-.72-.009-.032-.009-.07.006-.096.098-.168.201-.333.325-.534.199.134.378.236.53.366.062.053.09.168.088.254-.013.33.169.533.459.712.679.418 1.308.9 2.011 1.291.327.181.632.187.993.106.009-.147.015-.297.024-.432-.026-.026-.037-.044-.05-.05-.385-.128-.426-.157-.396-.523a4.61 4.61 0 0 1 .158-.94c.056-.195.195-.376.331-.542a.449.449 0 0 1 .52-.136c.155.054.315.095.462.162.236.104.38.275.442.517.045.185.13.36.203.563l-.175.071c.073.087.14.161.212.246l-.104.112c.056.053.11.106.164.16-.097.159-.25.08-.387.094l-.022.226-.313-.047-.026.366c.145-.059.253-.1.359-.146.093-.039.18-.102.274-.116.34-.049.574-.257.827-.435.55-.383 1.092-.773 1.642-1.155.131-.092.216-.194.23-.352.055-.541-.012-.395.468-.722.043-.03.091-.053.165-.096.155.183.313.371.354.584.041.216-.097.423-.255.59a8.28 8.28 0 0 1-.53.514c-.534.474-1.07.948-1.616 1.415-.138.118-.227.244-.192.415.052.252-.072.417-.3.535-.033.016-.057.045-.09.06-.229.107-.3.29-.333.513-.153 1.098-.32 2.194-.478 3.292-.02.14-.026.285-.021.427.052 1.727.1 3.455.164 5.183.01.291.095.58.136.87.035.24.061.482.09.724.014.133-.053.208-.202.212-.294.01-.588.032-.883.024-.196-.006-.235-.07-.2-.25.014-.083.049-.162.08-.24.038-.102.08-.205.118-.31.013-.017.009-.035.009-.1ZM118.692 7.375c.01-.464.441-.844.949-.836.511.01.93.406.917.866-.015.468-.441.842-.952.834-.514-.008-.923-.393-.914-.864Zm.962-.737c-.454-.014-.835.31-.85.728-.015.423.333.765.792.777.458.012.832-.305.854-.726.017-.411-.342-.766-.796-.78Z"/><path fill="#F9F0FF" d="M119.246 7.8v-.852c.193-.054.383-.044.569-.01.225.04.316.248.201.429-.032.049-.082.088-.134.145l.175.278c-.143.059-.231.023-.305-.085-.058-.086-.104-.206-.264-.155-.052.244-.052.244-.242.25Zm.227-.459c.1 0 .175.014.24-.004.048-.014.113-.07.113-.11 0-.041-.056-.108-.102-.122-.071-.02-.156-.006-.251-.006v.242Z"/></svg>