<svg xmlns="http://www.w3.org/2000/svg" width="170" height="38" fill="none" viewBox="0 0 170 38"><rect width="36.934" height="36.934" x=".6" y=".781" fill="#fff" fill-opacity=".5" rx="18.467"/><path fill="#fff" d="M12.566 25.781h2.588L19.49 13.29h-2.433L13.881 23.4h-.043L10.67 13.29H8.237l4.329 12.491Zm5.886 0h2.337l1.056-3.229h4.649l1.056 3.23h2.346L25.429 13.29h-2.51l-4.467 12.491Zm5.696-10.266h.052l1.731 5.315h-3.523l1.74-5.315ZM53.672 14.934h4.146c1.104 0 2.041-.217 2.813-.651a4.33 4.33 0 0 0 1.778-1.9c.409-.834.613-1.84.613-3.02v-.016c0-1.155-.206-2.141-.62-2.959a4.255 4.255 0 0 0-1.779-1.87c-.771-.429-1.706-.644-2.805-.644h-4.146v11.06Zm1.977-1.663V5.538h1.909c.72 0 1.338.15 1.854.452.517.301.91.74 1.18 1.318.277.572.415 1.262.415 2.07v.015c0 .828-.136 1.53-.407 2.108a2.87 2.87 0 0 1-1.172 1.318c-.516.301-1.14.452-1.87.452h-1.909ZM68.282 15.103c.567 0 1.065-.072 1.494-.215.43-.148.792-.34 1.089-.575.301-.24.539-.498.713-.774.178-.28.301-.556.367-.827l.016-.07h-1.81l-.022.054a1.427 1.427 0 0 1-.322.406 2.063 2.063 0 0 1-.606.36 2.393 2.393 0 0 1-.88.146c-.44 0-.821-.097-1.143-.29-.317-.2-.562-.481-.736-.844-.173-.368-.26-.81-.26-1.326v-.766c0-.537.087-.99.26-1.357.18-.373.42-.654.72-.843a1.92 1.92 0 0 1 1.05-.291c.394 0 .74.092 1.035.276.302.184.537.46.706.827.168.368.253.83.253 1.388v.758l.904-1.195h-5.871v1.28h6.806v-.629c0-.843-.156-1.579-.468-2.207a3.461 3.461 0 0 0-1.333-1.464c-.572-.353-1.257-.529-2.054-.529-.792 0-1.482.181-2.07.544a3.581 3.581 0 0 0-1.364 1.518c-.317.654-.475 1.42-.475 2.3v.007c0 .889.16 1.658.483 2.307.322.649.779 1.15 1.372 1.502.598.353 1.313.529 2.146.529ZM73.556 17.717h1.909V13.6h.13c.148.301.348.562.598.781.25.22.542.391.874.514.332.118.69.176 1.073.176.705 0 1.313-.173 1.824-.52.516-.353.915-.852 1.196-1.495.28-.644.421-1.41.421-2.3v-.015c0-.884-.143-1.648-.429-2.292-.281-.649-.68-1.15-1.196-1.502-.51-.353-1.116-.529-1.816-.529-.394 0-.754.059-1.08.176a2.742 2.742 0 0 0-.867.499 2.556 2.556 0 0 0-.598.774h-.13V6.557h-1.909v11.16Zm3.986-4.254c-.43 0-.802-.107-1.119-.322-.317-.22-.562-.531-.736-.935-.168-.409-.253-.894-.253-1.457v-.015c0-.562.085-1.045.253-1.448.174-.404.417-.713.728-.928.317-.22.693-.33 1.127-.33.434 0 .807.11 1.12.33.31.215.55.524.72.928.168.403.252.889.252 1.456v.015c0 .557-.084 1.04-.252 1.449-.17.404-.41.715-.72.935-.313.214-.686.322-1.12.322ZM85.392 15.072a3.28 3.28 0 0 0 1.027-.153c.312-.102.588-.25.828-.444a2.41 2.41 0 0 0 .598-.69h.13v1.15h1.886V9.208c0-.588-.13-1.091-.391-1.51-.261-.424-.642-.746-1.142-.966-.501-.225-1.114-.337-1.84-.337-.66 0-1.242.097-1.747.291-.506.194-.912.468-1.22.82-.306.353-.49.764-.55 1.234l-.009.07h1.802l.007-.031c.097-.276.284-.488.56-.636.276-.154.63-.23 1.065-.23.521 0 .915.112 1.18.337.266.22.399.539.399.958v2.652c0 .332-.087.63-.26.897-.174.26-.412.467-.713.62-.302.154-.644.23-1.027.23-.424 0-.774-.1-1.05-.299-.271-.199-.407-.477-.407-.835v-.015c0-.348.128-.619.383-.813.256-.194.652-.306 1.189-.337l2.828-.184V9.868l-3.097.192c-.68.035-1.257.156-1.732.36-.475.204-.835.488-1.08.85-.246.358-.368.785-.368 1.28v.016c0 .511.117.955.352 1.334.24.373.567.661.981.866.42.204.892.306 1.418.306ZM91.755 14.934h1.909v-4.867c0-.398.087-.743.26-1.034.174-.297.42-.524.736-.682.317-.159.687-.238 1.111-.238.169 0 .33.01.483.03.159.016.314.041.468.077V6.511a2.248 2.248 0 0 0-.353-.061 2.873 2.873 0 0 0-.421-.03c-.552 0-1.015.124-1.388.375-.368.25-.623.6-.766 1.05h-.13V6.557h-1.909v8.377ZM101.353 14.973a5.865 5.865 0 0 0 .988-.085v-1.471l-.306.03a5.877 5.877 0 0 1-.337.008c-.394 0-.68-.094-.859-.284-.174-.194-.26-.498-.26-.912V8.036h1.762V6.557h-1.762V4.503h-1.94v2.054h-1.303v1.48h1.303v4.675c0 .802.213 1.38.637 1.732.424.352 1.116.529 2.077.529ZM103.853 14.934h1.908V9.837c0-.347.069-.659.207-.935.143-.28.337-.5.583-.659.25-.163.531-.245.843-.245.312 0 .58.061.805.184.23.117.403.289.521.513.122.225.184.494.184.805v5.434h1.908V9.7c0-.321.067-.61.199-.866.138-.255.33-.457.575-.605.246-.153.534-.23.866-.23.343 0 .626.061.851.184.225.123.391.304.498.544.113.24.169.544.169.912v5.296h1.908V9.171c0-.578-.109-1.073-.329-1.487a2.222 2.222 0 0 0-.928-.95c-.398-.226-.878-.338-1.44-.338-.389 0-.752.064-1.089.192a2.626 2.626 0 0 0-.874.529 2.437 2.437 0 0 0-.574.789h-.138a2.31 2.31 0 0 0-.506-.805 2.266 2.266 0 0 0-.79-.521 2.681 2.681 0 0 0-1.019-.184c-.552 0-1.03.128-1.433.383a2.163 2.163 0 0 0-.866 1.081h-.131V6.557h-1.908v8.377ZM121.314 15.103c.567 0 1.066-.072 1.495-.215a3.65 3.65 0 0 0 1.088-.575c.302-.24.539-.498.713-.774.179-.28.301-.556.368-.827l.015-.07h-1.809l-.023.054a1.41 1.41 0 0 1-.322.406 2.061 2.061 0 0 1-.605.36 2.394 2.394 0 0 1-.882.146c-.439 0-.82-.097-1.142-.29-.316-.2-.562-.481-.735-.844-.174-.368-.261-.81-.261-1.326v-.766c0-.537.087-.99.261-1.357.178-.373.419-.654.72-.843a1.922 1.922 0 0 1 1.05-.291c.394 0 .739.092 1.035.276.301.184.536.46.705.827.169.368.253.83.253 1.388v.758l.904-1.195h-5.871v1.28h6.806v-.629c0-.843-.155-1.579-.467-2.207a3.46 3.46 0 0 0-1.334-1.464c-.572-.353-1.257-.529-2.054-.529-.792 0-1.482.181-2.069.544a3.58 3.58 0 0 0-1.365 1.518c-.316.654-.475 1.42-.475 2.3v.007c0 .889.161 1.658.483 2.307.322.649.779 1.15 1.372 1.502.598.353 1.313.529 2.146.529ZM126.589 14.934h1.908v-4.882c0-.419.074-.782.223-1.088.148-.307.36-.544.636-.713.276-.169.603-.253.981-.253.577 0 1.001.163 1.272.49.276.328.414.818.414 1.472v4.974h1.908V9.516c0-.997-.247-1.766-.743-2.307-.496-.542-1.211-.813-2.146-.813-.603 0-1.106.128-1.51.383-.404.256-.705.61-.904 1.066h-.131V6.557h-1.908v8.377ZM139.084 14.973a5.826 5.826 0 0 0 .988-.085v-1.471l-.306.03c-.087.006-.2.008-.338.008-.393 0-.679-.094-.858-.284-.174-.194-.261-.498-.261-.912V8.036h1.763V6.557h-1.763V4.503h-1.939v2.054h-1.303v1.48h1.303v4.675c0 .802.212 1.38.636 1.732.425.352 1.117.529 2.078.529ZM148.989 15.103c.838 0 1.556-.174 2.154-.521a3.496 3.496 0 0 0 1.387-1.503c.327-.648.491-1.425.491-2.33v-.015c0-.9-.164-1.673-.491-2.322a3.495 3.495 0 0 0-1.395-1.495c-.598-.347-1.313-.52-2.146-.52s-1.551.173-2.154.52a3.505 3.505 0 0 0-1.387 1.503c-.327.648-.49 1.42-.49 2.314v.015c0 .905.161 1.682.482 2.33a3.55 3.55 0 0 0 1.395 1.503c.603.347 1.321.521 2.154.521Zm0-1.548c-.444 0-.822-.11-1.134-.33-.307-.22-.542-.539-.705-.958-.164-.419-.246-.922-.246-1.51v-.015c0-.593.082-1.096.246-1.51.163-.419.401-.738.712-.958.312-.225.688-.337 1.127-.337.44 0 .813.112 1.119.337.312.22.549.539.713.958.164.414.245.917.245 1.51v.015c0 .588-.081 1.091-.245 1.51-.164.414-.401.733-.713.958-.306.22-.679.33-1.119.33ZM155.153 14.934h1.908V8.036h1.786V6.557h-1.816v-.72c0-.404.094-.708.283-.913.189-.209.509-.314.958-.314.133 0 .256.005.368.016.113.005.205.012.276.023V3.315a4.345 4.345 0 0 0-.483-.054 6.457 6.457 0 0 0-.567-.023c-.618 0-1.129.092-1.533.276a1.805 1.805 0 0 0-.896.82c-.189.368-.284.833-.284 1.395v.828h-1.372v1.48h1.372v6.897ZM56.676 34.934h2.307l3.833-11.06h-2.177l-2.744 8.776h-.13l-2.737-8.776h-2.176l3.824 11.06ZM66.856 35.103c.567 0 1.066-.072 1.495-.215.429-.148.792-.34 1.088-.575.302-.24.54-.498.713-.774.179-.28.301-.556.368-.827l.015-.07h-1.809l-.023.054a1.427 1.427 0 0 1-.322.407 2.063 2.063 0 0 1-.605.36 2.393 2.393 0 0 1-.882.145c-.439 0-.82-.097-1.142-.29-.316-.2-.562-.481-.735-.844-.174-.368-.26-.81-.26-1.326v-.766c0-.537.086-.99.26-1.357.178-.373.419-.654.72-.843a1.92 1.92 0 0 1 1.05-.291c.394 0 .739.092 1.035.276.301.183.536.46.705.827.169.368.253.83.253 1.388v.758l.904-1.195h-5.87v1.28h6.806v-.629c0-.843-.156-1.579-.468-2.207a3.462 3.462 0 0 0-1.334-1.464c-.572-.353-1.257-.529-2.054-.529-.792 0-1.482.181-2.07.544a3.58 3.58 0 0 0-1.364 1.518c-.316.654-.475 1.42-.475 2.3v.007c0 .889.161 1.658.483 2.307.322.649.78 1.15 1.372 1.502.598.353 1.313.529 2.146.529ZM75.427 34.973a5.855 5.855 0 0 0 .988-.085v-1.471l-.306.03c-.087.006-.2.008-.337.008-.394 0-.68-.094-.859-.283-.174-.195-.26-.499-.26-.913v-4.223h1.762v-1.479h-1.763v-2.054h-1.939v2.054H71.41v1.48h1.303v4.675c0 .802.213 1.38.637 1.732.424.352 1.116.529 2.077.529ZM81.437 35.103c.567 0 1.066-.072 1.495-.215.429-.148.792-.34 1.088-.575.302-.24.54-.498.713-.774.179-.28.301-.556.368-.827l.015-.07h-1.809l-.023.054a1.427 1.427 0 0 1-.322.407 2.063 2.063 0 0 1-.605.36c-.245.097-.54.145-.882.145-.439 0-.82-.097-1.141-.29-.317-.2-.563-.481-.736-.844-.174-.368-.26-.81-.26-1.326v-.766c0-.537.086-.99.26-1.357.178-.373.419-.654.72-.843a1.92 1.92 0 0 1 1.05-.291c.394 0 .739.092 1.035.276.301.183.536.46.705.827.169.368.253.83.253 1.388v.758l.904-1.195h-5.87v1.28H85.2v-.629c0-.843-.156-1.579-.468-2.207a3.462 3.462 0 0 0-1.334-1.464c-.572-.353-1.257-.529-2.054-.529-.792 0-1.482.181-2.07.544a3.58 3.58 0 0 0-1.364 1.518c-.316.654-.475 1.42-.475 2.3v.007c0 .889.161 1.658.483 2.307.322.649.78 1.15 1.372 1.502.598.353 1.313.529 2.146.529ZM86.712 34.934h1.908v-4.867c0-.398.087-.743.26-1.034.175-.297.42-.524.737-.683.316-.158.687-.237 1.111-.237.169 0 .33.01.483.03.158.016.314.041.468.077v-1.709a2.263 2.263 0 0 0-.353-.061 2.878 2.878 0 0 0-.422-.03c-.551 0-1.014.124-1.387.375-.368.25-.623.6-.766 1.05h-.13v-1.288h-1.91v8.377ZM95.022 35.072a3.28 3.28 0 0 0 1.027-.153c.311-.102.587-.25.828-.444a2.41 2.41 0 0 0 .597-.69h.13v1.15h1.886v-5.726c0-.588-.13-1.091-.39-1.51-.261-.424-.642-.746-1.143-.966-.5-.224-1.114-.337-1.84-.337-.658 0-1.24.097-1.747.291-.506.194-.912.468-1.218.82-.307.353-.49.764-.552 1.234l-.008.07h1.801l.008-.031c.097-.276.284-.488.56-.636.275-.154.63-.23 1.065-.23.521 0 .914.112 1.18.337.266.22.399.539.399.958v2.652c0 .332-.087.63-.26.897-.175.26-.412.467-.714.62-.301.154-.644.23-1.027.23-.424 0-.774-.1-1.05-.298-.27-.2-.406-.478-.406-.836v-.015c0-.348.128-.619.383-.813.256-.194.652-.306 1.188-.337l2.828-.184v-1.257l-3.096.192c-.68.036-1.257.156-1.732.36-.475.204-.836.488-1.08.85-.246.358-.369.785-.369 1.28v.016c0 .511.118.956.353 1.334.24.373.567.661.98.866.42.204.892.306 1.419.306ZM101.385 34.934h1.908v-4.882c0-.419.074-.782.223-1.088.148-.307.36-.544.636-.713.276-.169.603-.253.981-.253.577 0 1.001.163 1.272.49.276.328.414.818.414 1.472v4.974h1.908v-5.418c0-.997-.247-1.766-.743-2.307-.496-.542-1.211-.813-2.146-.813-.603 0-1.106.128-1.51.383-.404.256-.705.61-.904 1.066h-.131v-1.288h-1.908v8.377ZM113.749 35.103c.685 0 1.296-.11 1.832-.33.537-.224.958-.536 1.265-.935.306-.398.46-.863.46-1.395v-.015c0-.613-.197-1.101-.591-1.464-.393-.363-1.001-.636-1.824-.82l-1.356-.299a3.4 3.4 0 0 1-.728-.245c-.184-.092-.32-.2-.407-.322a.761.761 0 0 1-.122-.43v-.007c0-.21.061-.39.184-.544.127-.159.301-.281.521-.368.225-.087.478-.13.759-.13.449 0 .807.094 1.073.283.27.184.442.409.513.675l.008.023h1.793v-.016a2.29 2.29 0 0 0-.475-1.218c-.276-.358-.659-.639-1.15-.843-.49-.205-1.075-.307-1.755-.307-.659 0-1.241.107-1.747.322-.506.215-.902.514-1.188.897a2.196 2.196 0 0 0-.422 1.333v.008c0 .409.084.767.253 1.073.174.307.434.565.782.774.347.21.787.373 1.318.49l1.357.307c.46.102.789.238.989.407a.762.762 0 0 1 .298.613v.015c0 .21-.069.394-.206.552a1.401 1.401 0 0 1-.568.375c-.24.087-.518.13-.835.13-.475 0-.853-.091-1.134-.275a1.391 1.391 0 0 1-.575-.713l-.008-.015h-1.893v.015c.056.475.232.894.529 1.257.296.358.7.639 1.211.843.516.2 1.129.299 1.839.299ZM121.999 34.934h2.07l2.905-9.005h.59v-2.055h-1.64l-3.925 11.06Zm1.978-2.858h6.101l-.514-1.526h-5.074l-.513 1.525Zm6.032 2.858h2.069l-3.932-11.06h-1.042v2.055l2.905 9.005ZM133.72 34.934h1.908v-6.898h1.786v-1.479h-1.816v-.72c0-.404.094-.708.283-.913.189-.209.509-.314.958-.314.133 0 .256.005.368.016.113.005.205.012.276.023v-1.334a4.353 4.353 0 0 0-.483-.054 6.426 6.426 0 0 0-.567-.023c-.618 0-1.129.092-1.533.276a1.811 1.811 0 0 0-.897.82c-.189.368-.283.833-.283 1.395v.828h-1.372v1.48h1.372v6.897ZM139.516 34.934h1.908v-6.898h1.786v-1.479h-1.816v-.72c0-.404.094-.708.283-.913.189-.209.509-.314.958-.314.133 0 .256.005.368.016.113.005.205.012.276.023v-1.334a4.353 4.353 0 0 0-.483-.054 6.458 6.458 0 0 0-.567-.023c-.618 0-1.129.092-1.533.276a1.807 1.807 0 0 0-.897.82c-.189.368-.283.833-.283 1.395v.828h-1.372v1.48h1.372v6.897ZM146.676 35.072c.373 0 .715-.05 1.027-.153a2.578 2.578 0 0 0 1.426-1.134h.13v1.15h1.885v-5.726c0-.588-.13-1.091-.39-1.51-.261-.424-.642-.746-1.142-.966-.501-.224-1.114-.337-1.84-.337-.659 0-1.242.097-1.747.291-.506.194-.913.468-1.219.82a2.286 2.286 0 0 0-.552 1.234l-.008.07h1.802l.007-.031c.097-.276.284-.488.56-.636.276-.154.631-.23 1.065-.23.521 0 .915.112 1.18.337.266.22.399.539.399.958v2.652a1.6 1.6 0 0 1-.261.897c-.173.26-.411.467-.712.62-.302.154-.644.23-1.027.23-.425 0-.775-.1-1.051-.298-.27-.2-.406-.478-.406-.836v-.015c0-.348.128-.619.383-.813.256-.194.652-.306 1.188-.337l2.829-.184v-1.257l-3.097.192c-.679.036-1.257.156-1.732.36-.475.204-.835.488-1.081.85-.245.358-.368.785-.368 1.28v.016c0 .511.118.956.353 1.334.24.373.567.661.981.866.419.204.892.306 1.418.306ZM153.062 34.934h1.901v-8.377h-1.901v8.377Zm.958-9.78c.312 0 .578-.11.797-.33.225-.219.337-.482.337-.789 0-.316-.112-.582-.337-.797a1.084 1.084 0 0 0-.797-.33c-.312 0-.58.11-.805.33a1.06 1.06 0 0 0-.337.797c0 .307.113.57.337.79.225.22.493.33.805.33ZM156.919 34.934h1.908v-4.867c0-.398.087-.743.261-1.034.174-.297.419-.524.736-.683.317-.158.687-.237 1.111-.237.169 0 .33.01.483.03.158.016.314.041.467.077v-1.709a2.256 2.256 0 0 0-.352-.061 2.885 2.885 0 0 0-.422-.03c-.551 0-1.014.124-1.387.375-.368.25-.623.6-.766 1.05h-.131v-1.288h-1.908v8.377ZM166.018 35.103c.685 0 1.295-.11 1.832-.33.537-.224.958-.536 1.265-.935.306-.398.46-.863.46-1.395v-.015c0-.613-.197-1.101-.591-1.464-.393-.363-1.001-.636-1.824-.82l-1.356-.299a3.43 3.43 0 0 1-.729-.245 1.07 1.07 0 0 1-.406-.322.753.753 0 0 1-.122-.43v-.007c0-.21.061-.39.184-.544.127-.159.301-.281.521-.368a2.09 2.09 0 0 1 .759-.13c.449 0 .807.094 1.073.283.27.184.442.409.513.675l.008.023h1.793v-.016a2.29 2.29 0 0 0-.475-1.218c-.276-.358-.659-.639-1.15-.843-.49-.205-1.075-.307-1.755-.307-.659 0-1.241.107-1.747.322-.506.215-.902.514-1.188.897a2.196 2.196 0 0 0-.422 1.333v.008c0 .409.084.767.253 1.073.174.307.434.565.782.774.347.21.787.373 1.318.49l1.357.307c.46.102.789.238.988.407a.76.76 0 0 1 .299.613v.015c0 .21-.069.394-.207.552a1.398 1.398 0 0 1-.567.375c-.24.087-.518.13-.835.13-.475 0-.853-.091-1.135-.275a1.389 1.389 0 0 1-.574-.713l-.008-.015h-1.893v.015c.056.475.232.894.529 1.257.296.358.7.639 1.211.843.516.2 1.129.299 1.839.299Z"/></svg>