<svg width="43" height="44" viewBox="0 0 43 44" fill="none" xmlns="http://www.w3.org/2000/svg">
<g clip-path="url(#clip0_2007_202367)">
<rect y="0.800781" width="42.3957" height="42.3957" rx="21.1978" fill="white"/>
<circle cx="21.1978" cy="21.9986" r="21.1978" fill="white"/>
<path fill-rule="evenodd" clip-rule="evenodd" d="M1.02145 15.4765C1.95943 14.45 3.03026 13.8398 4.34462 13.8398C7.81342 13.8398 9.4106 17.9867 11.2907 22.8681C13.3389 28.1862 15.723 34.3761 21.2289 37.025C24.4318 38.5659 28.7629 39.3872 32.6729 39.8224C29.3679 41.9543 25.4319 43.1921 21.2069 43.1939C21.2039 43.1939 21.2009 43.1939 21.1978 43.1939C21.1948 43.1939 21.1918 43.1939 21.1887 43.1939C9.48568 43.189 0 33.7003 0 21.996C0 19.7214 0.358265 17.5305 1.02145 15.4765Z" fill="#9EEDFE"/>
<path fill-rule="evenodd" clip-rule="evenodd" d="M1.02145 15.4765C1.95943 14.45 3.03026 13.8398 4.34462 13.8398C7.81342 13.8398 9.4106 17.9867 11.2907 22.8681C13.3389 28.1862 15.723 34.3761 21.2289 37.025C24.4318 38.5659 28.7629 39.3872 32.6729 39.8224C29.3679 41.9543 25.4319 43.1921 21.2069 43.1939C21.2039 43.1939 21.2009 43.1939 21.1978 43.1939C21.1948 43.1939 21.1918 43.1939 21.1887 43.1939C9.48568 43.189 0 33.7003 0 21.996C0 19.7214 0.358265 17.5305 1.02145 15.4765Z" fill="url(#paint0_linear_2007_202367)"/>
<path fill-rule="evenodd" clip-rule="evenodd" d="M4.62109 35.214C5.94887 34.4039 7.09249 33.5759 8.17061 32.7953L8.17062 32.7953C11.1949 30.6056 13.7038 28.7891 18.3162 28.7891C22.8619 28.7891 25.3894 30.6153 28.4591 32.8334C30.4649 34.2827 32.7021 35.8992 35.8852 37.283C32.0781 40.9427 26.9067 43.1936 21.2095 43.197H21.1838C14.4792 43.193 8.50275 40.0764 4.62109 35.214Z" fill="url(#paint1_linear_2007_202367)"/>
<path d="M27.1589 24.4835C27.3462 24.4835 27.6139 24.3581 27.8102 24.2418C32.8336 21.0189 36.0189 17.2678 36.0189 13.4541C36.0189 10.285 33.8507 8.04688 31.0491 8.04688C29.3092 8.04688 27.9708 9.01373 27.1589 10.4909C26.3648 9.02269 25.0085 8.04688 23.2687 8.04688C20.467 8.04688 18.2988 10.285 18.2988 13.4541C18.2988 17.2678 21.4842 21.0189 26.5164 24.2418C26.7038 24.3581 26.9715 24.4835 27.1589 24.4835Z" fill="url(#paint2_linear_2007_202367)"/>
</g>
<defs>
<linearGradient id="paint0_linear_2007_202367" x1="11.0957" y1="52.1781" x2="3.74688" y2="11.2087" gradientUnits="userSpaceOnUse">
<stop stop-color="#4541FE"/>
<stop offset="0.717933" stop-color="#41DCFE" stop-opacity="0"/>
</linearGradient>
<linearGradient id="paint1_linear_2007_202367" x1="19.5443" y1="44.1348" x2="23.0109" y2="29.3498" gradientUnits="userSpaceOnUse">
<stop stop-color="#4541FE"/>
<stop offset="0.975281" stop-color="#41DCFE" stop-opacity="0.5"/>
</linearGradient>
<linearGradient id="paint2_linear_2007_202367" x1="29.0203" y1="31.2683" x2="39.4557" y2="12.8981" gradientUnits="userSpaceOnUse">
<stop stop-color="#F919E3"/>
<stop offset="1" stop-color="#FA3939"/>
</linearGradient>
<clipPath id="clip0_2007_202367">
<rect y="0.800781" width="42.3957" height="42.3957" rx="21.1978" fill="white"/>
</clipPath>
</defs>
</svg>
